<svg width="120" height="121" viewBox="0 0 120 121" fill="none" xmlns="http://www.w3.org/2000/svg">
<path d="M79.9995 120.5V100.5C91.0661 100.5 99.9994 91.5671 99.9994 80.5005H119.999C119.999 102.634 102.066 120.5 79.9995 120.5Z" fill="#FFD11A"/>
<path d="M79.9997 120.5V100.5C68.9331 100.5 59.9998 91.5671 59.9998 80.5005H40C40 102.634 57.9332 120.5 79.9997 120.5Z" fill="#FFD11A"/>
<path d="M0 80.4985H19.9998C19.9998 91.5651 28.9331 100.498 39.9997 100.498V120.498C17.9332 120.498 0 102.632 0 80.4985Z" fill="#FFD11A"/>
<path d="M0 80.4997H19.9998C19.9998 69.4331 28.9331 60.4998 39.9997 60.4998V40.5C17.9332 40.5 0 58.4332 0 80.4997Z" fill="#FFD11A"/>
<path d="M39.9997 0.5V20.4998C28.9331 20.4998 19.9998 29.4331 19.9998 40.4997H0C0 18.4332 17.9332 0.5 39.9997 0.5Z" fill="#FFD11A"/>
<path d="M39.9998 0.5V20.4998C51.0663 20.4998 59.9996 29.4331 59.9996 40.4997H79.9995C79.9995 18.4332 62.0663 0.5 39.9998 0.5Z" fill="#FFD11A"/>
<path d="M119.999 40.4997H99.9991C99.9991 29.4331 91.0659 20.4998 79.9993 20.4998V0.5C102.066 0.5 119.999 18.4332 119.999 40.4997Z" fill="#FFD11A"/>
<path d="M119.999 40.4995H99.9991C99.9991 51.5661 91.0659 60.4994 79.9993 60.4994V80.4992C102.066 80.4992 119.999 62.6327 119.999 40.4995Z" fill="#FFD11A"/>
</svg>
